# xmcd CD database file
#
# Track frame offsets:
#	150
#	2926
#	12719
#	22203
#	33731
#	43651
#	51181
#	59004
#	74528
#	84263
#	92859
#	105871
#	114612
#	124356
#	133671
#	144999
#	154704
#	162541
#	170211
#	185586
#	195468
#	204116
#	217167
#	226169
#	236073
#	245435
#	256795
#	266557
#	274167
#	281812
#	297326
#	307209
#	315850
#	328783
#
# Disc length: 4497 seconds
#
# Revision: 2
# Processed by: cddbd v1.5.2PL0 Copyright (c) Steve Scherf et al.
# Submitted via: CDex 1.70beta2
#
DISCID=0c118f22
DTITLE=Matthias Petzold - 11 Duets for Saxophone
DYEAR=2007
DGENRE=Jazz
TTITLE0=Stimmton
TTITLE1=Havanna Sunrise Eb
TTITLE2=Flohmarkt (Flea Market) Eb
TTITLE3=Cold Coffee Blues Eb
TTITLE4=Le Chat Sourient Eb
TTITLE5=Keep On Movin' Eb
TTITLE6=Whistling Eb
TTITLE7=October Eb
TTITLE8=Face To Face Eb
TTITLE9=Three Lemons And A Coconut Eb
TTITLE10=Moonlight On The Waves Eb
TTITLE11=Next Train To Brooklyn Eb
TTITLE12=Havanna Sunrise Bb
TTITLE13=Flohmarkt (Flea Market)Bb
TTITLE14=Cold Coffee Blues Bb
TTITLE15=Le Chat Sourient Bb
TTITLE16=Keep On Movin' Bb
TTITLE17=Whistling Bb
TTITLE18=Octoboer Bb
TTITLE19=Face To Face Bb
TTITLE20=Three Lemons And A Coconut Bb
TTITLE21=Moonlight On The Waves Bb
TTITLE22=Next Train To Brooklyn Bb
TTITLE23=Havanna Sunrise (Piano)
TTITLE24=Flohmarkt (Flea Market) (Piano)
TTITLE25=COld Coffe Blues (Piano)
TTITLE26=Le Chat Sourient (Piano)
TTITLE27=Keep On Movin' (Piano)
TTITLE28=Whistling (Piano)
TTITLE29=October (Piano)
TTITLE30=Face To Face (Piano)
TTITLE31=Three Lemons And A Coconut (Piano)
TTITLE32=Moonlight On The Waves (Piano)
TTITLE33=Next Train To Brooklyn (Piano)
EXTD=YEAR: 2007
EXTT0=
EXTT1=
EXTT2=
EXTT3=
EXTT4=
EXTT5=
EXTT6=
EXTT7=
EXTT8=
EXTT9=
EXTT10=
EXTT11=
EXTT12=
EXTT13=
EXTT14=
EXTT15=
EXTT16=
EXTT17=
EXTT18=
EXTT19=
EXTT20=
EXTT21=
EXTT22=
EXTT23=
EXTT24=
EXTT25=
EXTT26=
EXTT27=
EXTT28=
EXTT29=
EXTT30=
EXTT31=
EXTT32=
EXTT33=
PLAYORDER=
